HIERARCHY
ROOT Hips
{
	OFFSET	0.00	0.00	0.00
	CHANNELS 6 Xposition Yposition Zposition Zrotation Xrotation Yrotation
	JOINT LeftUpLeg
	{
		OFFSET	 0.126116	-0.014019	-0.065224
		CHANNELS 3 Zrotation Xrotation Yrotation
		JOINT LeftLeg
		{
			OFFSET	 0.000000	 0.000000	 0.569914
			CHANNELS 3 Zrotation Xrotation Yrotation
			JOINT LeftFoot
			{
				OFFSET	 0.000000	 0.000000	 0.544423
				CHANNELS 3 Zrotation Xrotation Yrotation
				JOINT LeftToeBase
				{
					OFFSET	 0.000000	 0.000000	 0.207117
					CHANNELS 3 Zrotation Xrotation Yrotation
					End Site
					{
						OFFSET	 0.000000	 0.000000	 0.207117
					}
				}
			}
		}
	}
	JOINT RightUpLeg
	{
		OFFSET	-0.124023	-0.008373	-0.065224
		CHANNELS 3 Zrotation Xrotation Yrotation
		JOINT RightLeg
		{
			OFFSET	 0.000000	 0.000000	 0.570047
			CHANNELS 3 Zrotation Xrotation Yrotation
			JOINT RightFoot
			{
				OFFSET	 0.000000	 0.000000	 0.544354
				CHANNELS 3 Zrotation Xrotation Yrotation
				JOINT RightToeBase
				{
					OFFSET	 0.000000	 0.000000	 0.207540
					CHANNELS 3 Zrotation Xrotation Yrotation
					End Site
					{
						OFFSET	 0.000000	 0.000000	 0.207540
					}
				}
			}
		}
	}
	JOINT Spine
	{
		OFFSET	 0.000184	-0.007763	 0.117403
		CHANNELS 3 Zrotation Xrotation Yrotation
		JOINT Spine1
		{
			OFFSET	 0.000000	 0.000000	 0.137269
			CHANNELS 3 Zrotation Xrotation Yrotation
			JOINT Spine2
			{
				OFFSET	 0.000000	 0.000000	 0.156879
				CHANNELS 3 Zrotation Xrotation Yrotation
				JOINT LeftShoulder
				{
					OFFSET	 0.080501	-0.002496	 0.160144
					CHANNELS 3 Zrotation Xrotation Yrotation
					JOINT LeftArm
					{
						OFFSET	 0.000000	 0.000000	 0.164363
						CHANNELS 3 Zrotation Xrotation Yrotation
						JOINT LeftForeArm
						{
							OFFSET	 0.000000	 0.000000	 0.364576
							CHANNELS 3 Zrotation Xrotation Yrotation
							JOINT LeftHand
							{
								OFFSET	 0.000000	 0.000000	 0.360812
								CHANNELS 3 Zrotation Xrotation Yrotation
								JOINT LeftHandIndex1
								{
									OFFSET	 0.000000	 0.000000	 0.086006
									CHANNELS 3 Zrotation Xrotation Yrotation
									JOINT LeftHandIndex2
									{
										OFFSET	 0.000000	 0.000000	 0.047236
										CHANNELS 3 Zrotation Xrotation Yrotation
										JOINT LeftHandIndex3
										{
											OFFSET	-0.004284	-0.000551	 0.038166
											CHANNELS 3 Zrotation Xrotation Yrotation
											End Site
											{
												OFFSET	-0.004284	-0.000551	 0.038166
											}
										}
									}
								}
							}
						}
					}
				}
				JOINT Neck
				{
					OFFSET	 0.000000	 0.000000	 0.176489
					CHANNELS 3 Zrotation Xrotation Yrotation
					JOINT Head
					{
						OFFSET	 0.000000	-0.001747	 0.077940
						CHANNELS 3 Zrotation Xrotation Yrotation
						End Site
						{
							OFFSET	 0.000000	-0.001747	 0.077940
						}
					}
				}
				JOINT RightShoulder
				{
					OFFSET	-0.080363	 0.000306	 0.159706
					CHANNELS 3 Zrotation Xrotation Yrotation
					JOINT RightArm
					{
						OFFSET	 0.000000	 0.000000	 0.164196
						CHANNELS 3 Zrotation Xrotation Yrotation
						JOINT RightForeArm
						{
							OFFSET	 0.000000	 0.000000	 0.365611
							CHANNELS 3 Zrotation Xrotation Yrotation
							JOINT RightHand
							{
								OFFSET	 0.000000	 0.000000	 0.360648
								CHANNELS 3 Zrotation Xrotation Yrotation
								JOINT RightHandIndex1
								{
									OFFSET	 0.000000	 0.000000	 0.069977
									CHANNELS 3 Zrotation Xrotation Yrotation
									JOINT RightHandIndex2
									{
										OFFSET	 0.000000	 0.000000	 0.052305
										CHANNELS 3 Zrotation Xrotation Yrotation
										JOINT RightHandIndex3
										{
											OFFSET	 0.009002	-0.000782	 0.042196
											CHANNELS 3 Zrotation Xrotation Yrotation
											End Site
											{
												OFFSET	 0.009002	-0.000782	 0.042196
											}
										}
									}
								}
							}
						}
					}
				}
			}
		}
	}
}
MOTION
Frames:    9
Frame Time: 0.03333334
-0.091296	 6.759596	 1.266026	-98.344560	 1.053689	 0.387192	-40.435920	-7.726594	-174.763700	 17.413260	-41.140480	 5.525851	-92.939270	 76.672700	 70.176790	-2.181754	 47.810620	-0.509082	 26.809090	-6.082248	-176.956000	-9.690984	-41.932230	-1.069696	 53.604170	 77.907960	-37.630420	 1.959741	 56.365720	 0.852662	-15.018060	 6.847784	 1.543136	-2.476220	 4.611747	-3.526815	-2.799986	-20.912190	 2.368017	-91.229260	 83.958310	 178.242600	 67.389180	 56.554160	-77.437660	 8.820705	-14.740750	-32.005750	 33.353180	 3.826163	-12.891310	-11.812930	 9.702285	-26.480350	-5.213937	-0.202400	 3.566957	-1.378229	 35.397820	-2.634230	-1.923778	 4.245116	 3.117194	-6.666071	-12.492720	-15.681370	 87.726830	 87.418890	-176.798800	-11.533840	 75.420720	-6.545428	-7.788877	-20.298030	 37.729830	-26.527810	-4.404701	 8.953021	-0.970032	 25.130560	-61.809020	 5.070519	-0.690904	-9.399550	-2.350882	 35.473990	 5.254307
-0.091196	 6.771323	 1.266630	-95.823490	 1.338874	 0.812062	-41.730920	-7.900051	-175.515800	 17.895930	-41.794940	 5.923000	-92.670620	 76.147360	 69.949540	-2.199239	 46.863270	-0.477743	 24.732130	-5.613355	-177.483200	-8.563882	-40.946610	-0.310325	 51.120200	 78.513140	-35.515170	 1.942464	 56.866700	 0.876872	-14.848450	 6.357196	 1.289994	-2.454687	 5.425246	-3.610039	-1.817117	-21.786510	 2.589195	-91.229260	 83.958340	 178.242600	 66.056880	 57.545470	-75.810290	 9.492192	-14.211250	-30.315000	 32.826370	 2.264260	-12.257700	-11.640780	 9.758574	-25.920290	-5.213937	-0.202400	 3.566957	-1.378229	 35.397820	-2.634230	-0.865115	 4.269670	 1.644272	-5.528826	-13.392600	-13.427180	 87.726970	 87.418890	-176.798900	-10.385560	 74.892610	-7.557514	-7.031476	-19.823930	 37.901520	-25.386470	-5.366476	 8.915263	-1.394781	 24.541140	-62.047170	 5.070519	-0.690904	-9.399550	-2.350882	 35.473990	 5.254307
-0.091101	 6.785621	 1.267554	-92.873160	 1.838964	 1.215279	-43.025810	-8.335895	-176.441900	 18.767850	-42.565770	 6.609249	-92.247510	 75.599920	 69.386410	-2.212888	 46.079900	-0.452564	 22.134540	-5.032818	-177.965200	-7.255125	-39.542470	 0.531849	 49.121090	 79.424220	-33.925860	 2.032230	 54.049980	 0.747882	-14.626650	 6.055398	 1.152035	-2.393746	 5.911996	-3.957498	-0.128980	-23.177700	 3.249768	-91.229290	 83.958340	 178.242600	 63.285220	 59.400220	-73.061970	 10.270660	-12.860050	-27.167970	 31.133790	 0.042641	-11.091050	-11.316530	 9.657187	-24.685770	-5.213937	-0.202400	 3.566957	-1.378229	 35.397820	-2.634230	 0.715393	 5.237283	-0.206369	-3.980428	-15.614500	-10.726810	 87.726540	 87.418960	-176.798500	-9.225625	 74.209840	-9.017359	-6.640840	-19.583600	 37.916050	-24.653060	-6.666049	 8.926274	-1.596264	 24.309650	-62.360130	 5.070519	-0.690904	-9.399550	-2.350882	 35.473990	 5.254307
-0.090800	 6.800883	 1.268649	-89.761920	 2.394677	 1.583463	-44.254810	-8.880501	-177.408100	 19.611680	-43.396240	 7.301290	-91.243210	 75.071170	 68.314100	-2.232674	 44.869530	-0.414843	 19.349470	-4.317404	-178.481200	-5.891162	-37.831550	 1.349327	 45.595460	 80.270370	-30.892050	 2.085633	 52.072980	 0.666575	-14.331750	 5.702231	 1.000274	-2.340949	 6.536352	-4.285634	 1.823624	-24.674440	 4.066146	-91.229310	 83.958340	 178.242600	 58.344910	 61.490030	-69.086290	 11.246350	-10.788790	-22.650160	 28.955140	-2.673504	-9.725305	-11.054200	 9.428112	-23.572820	-5.213937	-0.202400	 3.566957	-1.378229	 35.397820	-2.634230	 2.547410	 6.209790	-2.387949	-2.072613	-17.851900	-7.445541	 87.727040	 87.418890	-176.799000	-8.085390	 73.369490	-10.434380	-6.204726	-19.290420	 37.896640	-23.795640	-8.248330	 8.974425	-1.561686	 24.416550	-62.593260	 5.070519	-0.690904	-9.399550	-2.350882	 35.473990	 5.254307
-0.090147	 6.812195	 1.269385	-87.595260	 2.814261	 1.695455	-44.810870	-9.400517	-178.042200	 19.934780	-43.987620	 7.608237	-89.581280	 74.826000	 66.792850	-2.259493	 43.058340	-0.360886	 17.446230	-3.815434	-178.716400	-4.864930	-36.617050	 1.925179	 42.129260	 80.732040	-27.903230	 2.054860	 53.243950	 0.713911	-14.133540	 5.412669	 0.941698	-2.378975	 7.139245	-4.404428	 3.508577	-25.750440	 4.761817	-91.229170	 83.958310	 178.242500	 52.850440	 63.728660	-64.532920	 11.840510	-9.318489	-19.542920	 26.541190	-5.244861	-8.302217	-11.079740	 8.942239	-23.288650	-5.213937	-0.202400	 3.566957	-1.378229	 35.397820	-2.634230	 4.166417	 6.926687	-4.377652	-0.304429	-19.406900	-4.411045	 87.727030	 87.418890	-176.799000	-7.565623	 72.715120	-10.962110	-5.831721	-19.030600	 37.875050	-23.078540	-9.578503	 9.051509	-0.904580	 25.381080	-62.513190	 5.070519	-0.690904	-9.399550	-2.350882	 35.473990	 5.254307
-0.088881	 6.825707	 1.270183	-85.118790	 3.163013	 1.879689	-45.236260	-9.862400	-178.780900	 20.264930	-44.700130	 7.941039	-88.055820	 74.532480	 65.409150	-2.278211	 41.652650	-0.320855	 15.157270	-3.191512	-179.094100	-3.667031	-35.180210	 2.551941	 37.979950	 81.317940	-24.408000	 2.049588	 53.435690	 0.721889	-13.926920	 5.150688	 0.847336	-2.527914	 8.189844	-4.735214	 5.586433	-27.019990	 5.795833	-91.229260	 83.958370	 178.242600	 45.046330	 65.796620	-56.846150	 11.696000	-8.589129	-18.199080	 23.394900	-8.372689	-6.773293	-11.053000	 8.555415	-22.906240	-5.213937	-0.202400	 3.566957	-1.378229	 35.397820	-2.634230	 6.040991	 7.729441	-6.529012	 1.837521	-21.104490	-0.821583	 87.726780	 87.418960	-176.798700	-7.314480	 71.956070	-10.853170	-5.156446	-18.604440	 37.970830	-21.991680	-11.273520	 9.210713	-0.520025	 25.968530	-62.597680	 5.070519	-0.690904	-9.399550	-2.350882	 35.473990	 5.254307
-0.087917	 6.836273	 1.270591	-83.432530	 3.106400	 2.035372	-44.936790	-9.974116	-179.165100	 20.396540	-45.291160	 8.117683	-87.673160	 74.434620	 65.167890	-2.272737	 42.078210	-0.332807	 13.500080	-2.432853	-179.489300	-2.761655	-34.058030	 2.990166	 35.913930	 81.961390	-22.842590	 2.106962	 51.204030	 0.632880	-13.620140	 5.162639	 0.822510	-2.552332	 9.160814	-5.121397	 7.150085	-27.728860	 6.719280	-91.229260	 83.958370	 178.242600	 37.922770	 66.419070	-49.742800	 10.642130	-8.153650	-17.967990	 20.429510	-10.742580	-5.839624	-10.925090	 8.645106	-22.528960	-5.213937	-0.202400	 3.566957	-1.378229	 35.397820	-2.634230	 7.308307	 8.428931	-7.654805	 3.348912	-22.408200	 1.611549	 87.727040	 87.419040	-176.799000	-7.715867	 71.322670	-9.839009	-4.227519	-18.022140	 38.209230	-20.759170	-12.622650	 9.416904	-1.028834	 25.299510	-62.994050	 5.070519	-0.690904	-9.399550	-2.350882	 35.473990	 5.254307
-0.085960	 6.849754	 1.271059	-81.304520	 3.190621	 2.234410	-44.951440	-10.281350	-179.719300	 20.775940	-46.060620	 8.502016	-86.503030	 74.143460	 64.172330	-2.316562	 38.272950	-0.230263	 11.375720	-1.714917	-179.959500	-1.645695	-32.675170	 3.489757	 31.779440	 82.637450	-19.364910	 2.156996	 48.945560	 0.550388	-13.236200	 5.118112	 0.697500	-2.619890	 10.310720	-5.440467	 8.972599	-28.527880	 7.704389	-91.229270	 83.958370	 178.242600	 28.300840	 66.446040	-40.462170	 9.153559	-7.491389	-17.523820	 16.684440	-13.893480	-4.879014	-10.743160	 8.791389	-22.001530	-5.213937	-0.202400	 3.566957	-1.378229	 35.397820	-2.634230	 8.838902	 9.149877	-9.012189	 5.231033	-23.685250	 4.581427	 87.727080	 87.418820	-176.799000	-7.235868	 70.485460	-9.310217	-3.295568	-17.511570	 38.533860	-19.219350	-14.522470	 9.584731	-1.362799	 24.887230	-63.361030	 5.070519	-0.690904	-9.399550	-2.350882	 35.473990	 5.254307
-0.081523	 6.870332	 1.271532	-78.091530	 4.010166	 2.596372	-46.674440	-11.269940	 179.172900	 22.270220	-47.164560	 9.775886	-81.909520	 72.992170	 59.783550	-2.405942	 13.431630	 0.301955	 8.089995	-1.565248	 179.414500	 0.008711	-30.774490	 4.164510	 21.376230	 83.193750	-9.992610	 2.176069	 47.988030	 0.517404	-12.583750	 4.690877	 0.102845	-2.697098	 11.442910	-5.216016	 10.941230	-29.386620	 8.281071	-91.229300	 83.958340	 178.242600	 15.435050	 65.322760	-28.571140	 6.180983	-6.144898	-16.440020	 10.887240	-18.826980	-4.043337	-10.378650	 9.157308	-20.979290	-5.213937	-0.202400	 3.566957	-1.378229	 35.397820	-2.634230	 10.786340	 9.708920	-10.638990	 7.653502	-24.464310	 8.136441	 87.726840	 87.418960	-176.798800	-2.639244	 69.198520	-11.881930	-2.964371	-17.708680	 39.022050	-17.137210	-18.129020	 9.330166	-0.509636	 26.125880	-63.316600	 5.070519	-0.690904	-9.399550	-2.350882	 35.473990	 5.254307
